<?xml version="1.0" encoding="UTF-8" standalone="no"?>
<!DOCTYPE svg PUBLIC "-//W3C//DTD SVG 1.1//EN"
 "http://www.w3.org/Graphics/SVG/1.1/DTD/svg11.dtd">
<!-- Generated by graphviz version 2.43.0 (0)
 -->
<!-- Title: %3 Pages: 1 -->
<svg width="1941pt" height="476pt"
 viewBox="0.00 0.00 1940.81 476.00" xmlns="http://www.w3.org/2000/svg" xmlns:xlink="http://www.w3.org/1999/xlink">
<g id="graph0" class="graph" transform="scale(1 1) rotate(0) translate(4 472)">
<title>%3</title>
<polygon fill="white" stroke="transparent" points="-4,4 -4,-472 1936.81,-472 1936.81,4 -4,4"/>
<!-- [root] null_resource.update&#45;client&#45;config (expand) -->
<g id="node1" class="node">
<title>[root] null_resource.update&#45;client&#45;config (expand)</title>
<polygon fill="none" stroke="black" points="951.46,-324 693.46,-324 693.46,-288 951.46,-288 951.46,-324"/>
<text text-anchor="middle" x="822.46" y="-302.3" font-family="Times,serif" font-size="14.00">null_resource.update&#45;client&#45;config</text>
</g>
<!-- [root] openstack_compute_floatingip_associate_v2.client&#45;ip&#45;associate (expand) -->
<g id="node3" class="node">
<title>[root] openstack_compute_floatingip_associate_v2.client&#45;ip&#45;associate (expand)</title>
<polygon fill="none" stroke="black" points="1612.96,-252 1151.96,-252 1151.96,-216 1612.96,-216 1612.96,-252"/>
<text text-anchor="middle" x="1382.46" y="-230.3" font-family="Times,serif" font-size="14.00">openstack_compute_floatingip_associate_v2.client&#45;ip&#45;associate</text>
</g>
<!-- [root] null_resource.update&#45;client&#45;config (expand)&#45;&gt;[root] openstack_compute_floatingip_associate_v2.client&#45;ip&#45;associate (expand) -->
<g id="edge3" class="edge">
<title>[root] null_resource.update&#45;client&#45;config (expand)&#45;&gt;[root] openstack_compute_floatingip_associate_v2.client&#45;ip&#45;associate (expand)</title>
<path fill="none" stroke="black" d="M951.64,-288.85C1036.55,-278.24 1147.84,-264.33 1236.03,-253.3"/>
<polygon fill="black" stroke="black" points="1236.63,-256.76 1246.12,-252.04 1235.76,-249.81 1236.63,-256.76"/>
</g>
<!-- [root] openstack_compute_floatingip_associate_v2.server&#45;ip&#45;associate (expand) -->
<g id="node4" class="node">
<title>[root] openstack_compute_floatingip_associate_v2.server&#45;ip&#45;associate (expand)</title>
<polygon fill="none" stroke="black" points="1133.96,-252 666.96,-252 666.96,-216 1133.96,-216 1133.96,-252"/>
<text text-anchor="middle" x="900.46" y="-230.3" font-family="Times,serif" font-size="14.00">openstack_compute_floatingip_associate_v2.server&#45;ip&#45;associate</text>
</g>
<!-- [root] null_resource.update&#45;client&#45;config (expand)&#45;&gt;[root] openstack_compute_floatingip_associate_v2.server&#45;ip&#45;associate (expand) -->
<g id="edge4" class="edge">
<title>[root] null_resource.update&#45;client&#45;config (expand)&#45;&gt;[root] openstack_compute_floatingip_associate_v2.server&#45;ip&#45;associate (expand)</title>
<path fill="none" stroke="black" d="M841.74,-287.7C851.38,-279.05 863.19,-268.45 873.69,-259.03"/>
<polygon fill="black" stroke="black" points="876.3,-261.39 881.4,-252.1 871.62,-256.18 876.3,-261.39"/>
</g>
<!-- [root] provider[&quot;registry.terraform.io/hashicorp/null&quot;] -->
<g id="node8" class="node">
<title>[root] provider[&quot;registry.terraform.io/hashicorp/null&quot;]</title>
<polygon fill="none" stroke="black" points="324.46,-252 0.04,-234 324.46,-216 648.89,-234 324.46,-252"/>
<text text-anchor="middle" x="324.46" y="-230.3" font-family="Times,serif" font-size="14.00">provider[&quot;registry.terraform.io/hashicorp/null&quot;]</text>
</g>
<!-- [root] null_resource.update&#45;client&#45;config (expand)&#45;&gt;[root] provider[&quot;registry.terraform.io/hashicorp/null&quot;] -->
<g id="edge5" class="edge">
<title>[root] null_resource.update&#45;client&#45;config (expand)&#45;&gt;[root] provider[&quot;registry.terraform.io/hashicorp/null&quot;]</title>
<path fill="none" stroke="black" d="M701.27,-287.97C615.27,-275.88 501.35,-259.86 421.37,-248.62"/>
<polygon fill="black" stroke="black" points="421.69,-245.13 411.3,-247.21 420.72,-252.06 421.69,-245.13"/>
</g>
<!-- [root] null_resource.update&#45;server&#45;config (expand) -->
<g id="node2" class="node">
<title>[root] null_resource.update&#45;server&#45;config (expand)</title>
<polygon fill="none" stroke="black" points="675.46,-324 411.46,-324 411.46,-288 675.46,-288 675.46,-324"/>
<text text-anchor="middle" x="543.46" y="-302.3" font-family="Times,serif" font-size="14.00">null_resource.update&#45;server&#45;config</text>
</g>
<!-- [root] null_resource.update&#45;server&#45;config (expand)&#45;&gt;[root] openstack_compute_floatingip_associate_v2.server&#45;ip&#45;associate (expand) -->
<g id="edge6" class="edge">
<title>[root] null_resource.update&#45;server&#45;config (expand)&#45;&gt;[root] openstack_compute_floatingip_associate_v2.server&#45;ip&#45;associate (expand)</title>
<path fill="none" stroke="black" d="M630.34,-287.97C682.7,-277.7 749.5,-264.6 803.57,-254"/>
<polygon fill="black" stroke="black" points="804.37,-257.41 813.51,-252.05 803.02,-250.54 804.37,-257.41"/>
</g>
<!-- [root] null_resource.update&#45;server&#45;config (expand)&#45;&gt;[root] provider[&quot;registry.terraform.io/hashicorp/null&quot;] -->
<g id="edge7" class="edge">
<title>[root] null_resource.update&#45;server&#45;config (expand)&#45;&gt;[root] provider[&quot;registry.terraform.io/hashicorp/null&quot;]</title>
<path fill="none" stroke="black" d="M490.17,-287.97C456.64,-277.25 413.45,-263.44 379.58,-252.62"/>
<polygon fill="black" stroke="black" points="380.43,-249.21 369.84,-249.5 378.3,-255.88 380.43,-249.21"/>
</g>
<!-- [root] openstack_compute_instance_v2.g5&#45;flower&#45;client (expand) -->
<g id="node5" class="node">
<title>[root] openstack_compute_instance_v2.g5&#45;flower&#45;client (expand)</title>
<polygon fill="none" stroke="black" points="1237.96,-180 874.96,-180 874.96,-144 1237.96,-144 1237.96,-180"/>
<text text-anchor="middle" x="1056.46" y="-158.3" font-family="Times,serif" font-size="14.00">openstack_compute_instance_v2.g5&#45;flower&#45;client</text>
</g>
<!-- [root] openstack_compute_floatingip_associate_v2.client&#45;ip&#45;associate (expand)&#45;&gt;[root] openstack_compute_instance_v2.g5&#45;flower&#45;client (expand) -->
<g id="edge8" class="edge">
<title>[root] openstack_compute_floatingip_associate_v2.client&#45;ip&#45;associate (expand)&#45;&gt;[root] openstack_compute_instance_v2.g5&#45;flower&#45;client (expand)</title>
<path fill="none" stroke="black" d="M1303.13,-215.97C1255.61,-205.76 1195.08,-192.76 1145.87,-182.2"/>
<polygon fill="black" stroke="black" points="1146.38,-178.73 1135.87,-180.05 1144.91,-185.57 1146.38,-178.73"/>
</g>
<!-- [root] openstack_networking_floatingip_v2.floating&#45;ips (expand) -->
<g id="node7" class="node">
<title>[root] openstack_networking_floatingip_v2.floating&#45;ips (expand)</title>
<polygon fill="none" stroke="black" points="1614.96,-180 1255.96,-180 1255.96,-144 1614.96,-144 1614.96,-180"/>
<text text-anchor="middle" x="1435.46" y="-158.3" font-family="Times,serif" font-size="14.00">openstack_networking_floatingip_v2.floating&#45;ips</text>
</g>
<!-- [root] openstack_compute_floatingip_associate_v2.client&#45;ip&#45;associate (expand)&#45;&gt;[root] openstack_networking_floatingip_v2.floating&#45;ips (expand) -->
<g id="edge9" class="edge">
<title>[root] openstack_compute_floatingip_associate_v2.client&#45;ip&#45;associate (expand)&#45;&gt;[root] openstack_networking_floatingip_v2.floating&#45;ips (expand)</title>
<path fill="none" stroke="black" d="M1395.56,-215.7C1401.85,-207.39 1409.51,-197.28 1416.43,-188.14"/>
<polygon fill="black" stroke="black" points="1419.27,-190.19 1422.51,-180.1 1413.69,-185.96 1419.27,-190.19"/>
</g>
<!-- [root] openstack_compute_instance_v2.g5&#45;flower&#45;server (expand) -->
<g id="node6" class="node">
<title>[root] openstack_compute_instance_v2.g5&#45;flower&#45;server (expand)</title>
<polygon fill="none" stroke="black" points="1031.96,-108 662.96,-108 662.96,-72 1031.96,-72 1031.96,-108"/>
<text text-anchor="middle" x="847.46" y="-86.3" font-family="Times,serif" font-size="14.00">openstack_compute_instance_v2.g5&#45;flower&#45;server</text>
</g>
<!-- [root] openstack_compute_floatingip_associate_v2.server&#45;ip&#45;associate (expand)&#45;&gt;[root] openstack_compute_instance_v2.g5&#45;flower&#45;server (expand) -->
<g id="edge10" class="edge">
<title>[root] openstack_compute_floatingip_associate_v2.server&#45;ip&#45;associate (expand)&#45;&gt;[root] openstack_compute_instance_v2.g5&#45;flower&#45;server (expand)</title>
<path fill="none" stroke="black" d="M886.65,-215.81C879.33,-205.88 870.77,-192.84 865.46,-180 857.3,-160.24 852.74,-136.44 850.25,-118.42"/>
<polygon fill="black" stroke="black" points="853.69,-117.79 848.98,-108.3 846.75,-118.66 853.69,-117.79"/>
</g>
<!-- [root] openstack_compute_floatingip_associate_v2.server&#45;ip&#45;associate (expand)&#45;&gt;[root] openstack_networking_floatingip_v2.floating&#45;ips (expand) -->
<g id="edge11" class="edge">
<title>[root] openstack_compute_floatingip_associate_v2.server&#45;ip&#45;associate (expand)&#45;&gt;[root] openstack_networking_floatingip_v2.floating&#45;ips (expand)</title>
<path fill="none" stroke="black" d="M1030.65,-215.97C1110.67,-205.5 1213.18,-192.08 1295.02,-181.38"/>
<polygon fill="black" stroke="black" points="1295.69,-184.82 1305.15,-180.05 1294.78,-177.88 1295.69,-184.82"/>
</g>
<!-- [root] openstack_compute_instance_v2.g5&#45;flower&#45;client (expand)&#45;&gt;[root] openstack_compute_instance_v2.g5&#45;flower&#45;server (expand) -->
<g id="edge12" class="edge">
<title>[root] openstack_compute_instance_v2.g5&#45;flower&#45;client (expand)&#45;&gt;[root] openstack_compute_instance_v2.g5&#45;flower&#45;server (expand)</title>
<path fill="none" stroke="black" d="M1005.6,-143.97C976.27,-134.14 939.21,-121.73 908.34,-111.39"/>
<polygon fill="black" stroke="black" points="909.14,-107.97 898.55,-108.11 906.92,-114.61 909.14,-107.97"/>
</g>
<!-- [root] var.clients -->
<g id="node10" class="node">
<title>[root] var.clients</title>
<polygon fill="none" stroke="black" points="1268.46,-108 1184.46,-108 1184.46,-72 1274.46,-72 1274.46,-102 1268.46,-108"/>
<polyline fill="none" stroke="black" points="1268.46,-108 1268.46,-102 "/>
<polyline fill="none" stroke="black" points="1274.46,-102 1268.46,-102 "/>
<text text-anchor="middle" x="1229.46" y="-86.3" font-family="Times,serif" font-size="14.00">var.clients</text>
</g>
<!-- [root] openstack_compute_instance_v2.g5&#45;flower&#45;client (expand)&#45;&gt;[root] var.clients -->
<g id="edge13" class="edge">
<title>[root] openstack_compute_instance_v2.g5&#45;flower&#45;client (expand)&#45;&gt;[root] var.clients</title>
<path fill="none" stroke="black" d="M1098.78,-143.88C1122.64,-134.22 1152.63,-122.09 1177.87,-111.88"/>
<polygon fill="black" stroke="black" points="1179.32,-115.06 1187.28,-108.07 1176.7,-108.57 1179.32,-115.06"/>
</g>
<!-- [root] provider[&quot;registry.terraform.io/terraform&#45;provider&#45;openstack/openstack&quot;] -->
<g id="node9" class="node">
<title>[root] provider[&quot;registry.terraform.io/terraform&#45;provider&#45;openstack/openstack&quot;]</title>
<polygon fill="none" stroke="black" points="1436.46,-36 940.27,-18 1436.46,0 1932.65,-18 1436.46,-36"/>
<text text-anchor="middle" x="1436.46" y="-14.3" font-family="Times,serif" font-size="14.00">provider[&quot;registry.terraform.io/terraform&#45;provider&#45;openstack/openstack&quot;]</text>
</g>
<!-- [root] openstack_compute_instance_v2.g5&#45;flower&#45;server (expand)&#45;&gt;[root] provider[&quot;registry.terraform.io/terraform&#45;provider&#45;openstack/openstack&quot;] -->
<g id="edge14" class="edge">
<title>[root] openstack_compute_instance_v2.g5&#45;flower&#45;server (expand)&#45;&gt;[root] provider[&quot;registry.terraform.io/terraform&#45;provider&#45;openstack/openstack&quot;]</title>
<path fill="none" stroke="black" d="M990.79,-71.97C1090.67,-60.1 1222.38,-44.44 1316.67,-33.24"/>
<polygon fill="black" stroke="black" points="1317.3,-36.69 1326.82,-32.03 1316.48,-29.74 1317.3,-36.69"/>
</g>
<!-- [root] var.instance_suffix -->
<g id="node11" class="node">
<title>[root] var.instance_suffix</title>
<polygon fill="none" stroke="black" points="915.96,-36 772.96,-36 772.96,0 921.96,0 921.96,-30 915.96,-36"/>
<polyline fill="none" stroke="black" points="915.96,-36 915.96,-30 "/>
<polyline fill="none" stroke="black" points="921.96,-30 915.96,-30 "/>
<text text-anchor="middle" x="847.46" y="-14.3" font-family="Times,serif" font-size="14.00">var.instance_suffix</text>
</g>
<!-- [root] openstack_compute_instance_v2.g5&#45;flower&#45;server (expand)&#45;&gt;[root] var.instance_suffix -->
<g id="edge15" class="edge">
<title>[root] openstack_compute_instance_v2.g5&#45;flower&#45;server (expand)&#45;&gt;[root] var.instance_suffix</title>
<path fill="none" stroke="black" d="M847.46,-71.7C847.46,-63.98 847.46,-54.71 847.46,-46.11"/>
<polygon fill="black" stroke="black" points="850.96,-46.1 847.46,-36.1 843.96,-46.1 850.96,-46.1"/>
</g>
<!-- [root] var.key_pair -->
<g id="node12" class="node">
<title>[root] var.key_pair</title>
<polygon fill="none" stroke="black" points="748.96,-36 651.96,-36 651.96,0 754.96,0 754.96,-30 748.96,-36"/>
<polyline fill="none" stroke="black" points="748.96,-36 748.96,-30 "/>
<polyline fill="none" stroke="black" points="754.96,-30 748.96,-30 "/>
<text text-anchor="middle" x="703.46" y="-14.3" font-family="Times,serif" font-size="14.00">var.key_pair</text>
</g>
<!-- [root] openstack_compute_instance_v2.g5&#45;flower&#45;server (expand)&#45;&gt;[root] var.key_pair -->
<g id="edge16" class="edge">
<title>[root] openstack_compute_instance_v2.g5&#45;flower&#45;server (expand)&#45;&gt;[root] var.key_pair</title>
<path fill="none" stroke="black" d="M812.24,-71.88C792.89,-62.47 768.69,-50.71 748.04,-40.67"/>
<polygon fill="black" stroke="black" points="749.35,-37.41 738.82,-36.19 746.29,-43.71 749.35,-37.41"/>
</g>
<!-- [root] openstack_networking_floatingip_v2.floating&#45;ips (expand)&#45;&gt;[root] provider[&quot;registry.terraform.io/terraform&#45;provider&#45;openstack/openstack&quot;] -->
<g id="edge17" class="edge">
<title>[root] openstack_networking_floatingip_v2.floating&#45;ips (expand)&#45;&gt;[root] provider[&quot;registry.terraform.io/terraform&#45;provider&#45;openstack/openstack&quot;]</title>
<path fill="none" stroke="black" d="M1435.58,-143.87C1435.75,-119.67 1436.07,-75.21 1436.27,-46.39"/>
<polygon fill="black" stroke="black" points="1439.77,-46.21 1436.34,-36.19 1432.77,-46.16 1439.77,-46.21"/>
</g>
<!-- [root] openstack_networking_floatingip_v2.floating&#45;ips (expand)&#45;&gt;[root] var.clients -->
<g id="edge18" class="edge">
<title>[root] openstack_networking_floatingip_v2.floating&#45;ips (expand)&#45;&gt;[root] var.clients</title>
<path fill="none" stroke="black" d="M1385.33,-143.97C1354.68,-133.55 1315.46,-120.22 1284.03,-109.54"/>
<polygon fill="black" stroke="black" points="1285.14,-106.22 1274.54,-106.32 1282.88,-112.85 1285.14,-106.22"/>
</g>
<!-- [root] meta.count&#45;boundary (EachMode fixup) -->
<g id="node13" class="node">
<title>[root] meta.count&#45;boundary (EachMode fixup)</title>
<ellipse fill="none" stroke="black" cx="1076.46" cy="-378" rx="222.86" ry="18"/>
<text text-anchor="middle" x="1076.46" y="-374.3" font-family="Times,serif" font-size="14.00">[root] meta.count&#45;boundary (EachMode fixup)</text>
</g>
<!-- [root] meta.count&#45;boundary (EachMode fixup)&#45;&gt;[root] null_resource.update&#45;client&#45;config (expand) -->
<g id="edge1" class="edge">
<title>[root] meta.count&#45;boundary (EachMode fixup)&#45;&gt;[root] null_resource.update&#45;client&#45;config (expand)</title>
<path fill="none" stroke="black" d="M1016.91,-360.59C980.14,-350.46 932.75,-337.39 893.96,-326.7"/>
<polygon fill="black" stroke="black" points="894.86,-323.32 884.29,-324.04 893,-330.07 894.86,-323.32"/>
</g>
<!-- [root] meta.count&#45;boundary (EachMode fixup)&#45;&gt;[root] null_resource.update&#45;server&#45;config (expand) -->
<g id="edge2" class="edge">
<title>[root] meta.count&#45;boundary (EachMode fixup)&#45;&gt;[root] null_resource.update&#45;server&#45;config (expand)</title>
<path fill="none" stroke="black" d="M965.05,-362.37C883.07,-351.6 771.05,-336.89 683.09,-325.34"/>
<polygon fill="black" stroke="black" points="683.4,-321.85 673.03,-324.02 682.49,-328.79 683.4,-321.85"/>
</g>
<!-- [root] provider[&quot;registry.terraform.io/hashicorp/null&quot;] (close) -->
<g id="node14" class="node">
<title>[root] provider[&quot;registry.terraform.io/hashicorp/null&quot;] (close)</title>
<ellipse fill="none" stroke="black" cx="543.46" cy="-378" rx="291.65" ry="18"/>
<text text-anchor="middle" x="543.46" y="-374.3" font-family="Times,serif" font-size="14.00">[root] provider[&quot;registry.terraform.io/hashicorp/null&quot;] (close)</text>
</g>
<!-- [root] provider[&quot;registry.terraform.io/hashicorp/null&quot;] (close)&#45;&gt;[root] null_resource.update&#45;client&#45;config (expand) -->
<g id="edge19" class="edge">
<title>[root] provider[&quot;registry.terraform.io/hashicorp/null&quot;] (close)&#45;&gt;[root] null_resource.update&#45;client&#45;config (expand)</title>
<path fill="none" stroke="black" d="M609.58,-360.41C650.09,-350.25 702.15,-337.19 744.65,-326.52"/>
<polygon fill="black" stroke="black" points="745.55,-329.91 754.39,-324.08 743.84,-323.12 745.55,-329.91"/>
</g>
<!-- [root] provider[&quot;registry.terraform.io/hashicorp/null&quot;] (close)&#45;&gt;[root] null_resource.update&#45;server&#45;config (expand) -->
<g id="edge20" class="edge">
<title>[root] provider[&quot;registry.terraform.io/hashicorp/null&quot;] (close)&#45;&gt;[root] null_resource.update&#45;server&#45;config (expand)</title>
<path fill="none" stroke="black" d="M543.46,-359.7C543.46,-351.98 543.46,-342.71 543.46,-334.11"/>
<polygon fill="black" stroke="black" points="546.96,-334.1 543.46,-324.1 539.96,-334.1 546.96,-334.1"/>
</g>
<!-- [root] provider[&quot;registry.terraform.io/terraform&#45;provider&#45;openstack/openstack&quot;] (close) -->
<g id="node15" class="node">
<title>[root] provider[&quot;registry.terraform.io/terraform&#45;provider&#45;openstack/openstack&quot;] (close)</title>
<ellipse fill="none" stroke="black" cx="1382.46" cy="-306" rx="412.93" ry="18"/>
<text text-anchor="middle" x="1382.46" y="-302.3" font-family="Times,serif" font-size="14.00">[root] provider[&quot;registry.terraform.io/terraform&#45;provider&#45;openstack/openstack&quot;] (close)</text>
</g>
<!-- [root] provider[&quot;registry.terraform.io/terraform&#45;provider&#45;openstack/openstack&quot;] (close)&#45;&gt;[root] openstack_compute_floatingip_associate_v2.client&#45;ip&#45;associate (expand) -->
<g id="edge21" class="edge">
<title>[root] provider[&quot;registry.terraform.io/terraform&#45;provider&#45;openstack/openstack&quot;] (close)&#45;&gt;[root] openstack_compute_floatingip_associate_v2.client&#45;ip&#45;associate (expand)</title>
<path fill="none" stroke="black" d="M1382.46,-287.7C1382.46,-279.98 1382.46,-270.71 1382.46,-262.11"/>
<polygon fill="black" stroke="black" points="1385.96,-262.1 1382.46,-252.1 1378.96,-262.1 1385.96,-262.1"/>
</g>
<!-- [root] provider[&quot;registry.terraform.io/terraform&#45;provider&#45;openstack/openstack&quot;] (close)&#45;&gt;[root] openstack_compute_floatingip_associate_v2.server&#45;ip&#45;associate (expand) -->
<g id="edge22" class="edge">
<title>[root] provider[&quot;registry.terraform.io/terraform&#45;provider&#45;openstack/openstack&quot;] (close)&#45;&gt;[root] openstack_compute_floatingip_associate_v2.server&#45;ip&#45;associate (expand)</title>
<path fill="none" stroke="black" d="M1270.06,-288.68C1197.52,-278.14 1102.98,-264.41 1027.68,-253.48"/>
<polygon fill="black" stroke="black" points="1028.06,-249.99 1017.66,-252.02 1027.05,-256.92 1028.06,-249.99"/>
</g>
<!-- [root] root -->
<g id="node16" class="node">
<title>[root] root</title>
<ellipse fill="none" stroke="black" cx="1076.46" cy="-450" rx="58.49" ry="18"/>
<text text-anchor="middle" x="1076.46" y="-446.3" font-family="Times,serif" font-size="14.00">[root] root</text>
</g>
<!-- [root] root&#45;&gt;[root] meta.count&#45;boundary (EachMode fixup) -->
<g id="edge23" class="edge">
<title>[root] root&#45;&gt;[root] meta.count&#45;boundary (EachMode fixup)</title>
<path fill="none" stroke="black" d="M1076.46,-431.7C1076.46,-423.98 1076.46,-414.71 1076.46,-406.11"/>
<polygon fill="black" stroke="black" points="1079.96,-406.1 1076.46,-396.1 1072.96,-406.1 1079.96,-406.1"/>
</g>
<!-- [root] root&#45;&gt;[root] provider[&quot;registry.terraform.io/hashicorp/null&quot;] (close) -->
<g id="edge24" class="edge">
<title>[root] root&#45;&gt;[root] provider[&quot;registry.terraform.io/hashicorp/null&quot;] (close)</title>
<path fill="none" stroke="black" d="M1023.9,-442.1C942.64,-431.42 784.13,-410.61 671.43,-395.81"/>
<polygon fill="black" stroke="black" points="671.72,-392.31 661.35,-394.48 670.81,-399.25 671.72,-392.31"/>
</g>
<!-- [root] root&#45;&gt;[root] provider[&quot;registry.terraform.io/terraform&#45;provider&#45;openstack/openstack&quot;] (close) -->
<g id="edge25" class="edge">
<title>[root] root&#45;&gt;[root] provider[&quot;registry.terraform.io/terraform&#45;provider&#45;openstack/openstack&quot;] (close)</title>
<path fill="none" stroke="black" d="M1133.73,-446.14C1183.2,-441.39 1254.95,-428.87 1308.46,-396 1333.7,-380.49 1354.41,-353.33 1367.44,-333.08"/>
<polygon fill="black" stroke="black" points="1370.57,-334.67 1372.87,-324.33 1364.63,-330.98 1370.57,-334.67"/>
</g>
</g>
</svg>
